<?xml version="1.0" encoding="utf-8"?>
<svg xmlns="http://www.w3.org/2000/svg" xmlns:xlink="http://www.w3.org/1999/xlink" version="1.1" id="Ebene_1" x="0px" y="0px" viewBox="0 0 171.7 103.7" style="enable-background:new 0 0 171.7 103.7;" xml:space="preserve" width="105" height="63">
<style type="text/css">
	.st0{fill:#222D7C;}
	.st1{fill:#8C97A1;}
</style>
<g>
	<g>
		<path class="st0" d="M69,2.8l-3.8-0.7c-7.6-1.3-14-2-19.2-2c-6.7,0-12.2,1.6-16.5,4.7s-6.4,7.8-6.4,14.1c0,6.3,1.5,10.6,4.7,13    c3.1,2.4,8,4.1,14.6,5.2c6.7,1.1,10.9,2.1,12.6,3.1c1.8,0.9,2.6,2.6,2.6,5.1c0,2.4-0.9,4.2-2.8,5.3c-1.8,1.1-4.9,1.6-9.2,1.6    s-11.4-0.7-21.2-2l-0.5,11.1l3.8,0.6c7.6,1.4,13.9,2.1,18.9,2.1c7.9,0,13.9-1.5,18.1-4.5c4.1-3,6.2-7.8,6.2-14.2    s-1.4-10.9-4.3-13.5c-2.9-2.5-7.7-4.4-14.5-5.6C45.3,25,41,24,39.1,23.1c-1.8-0.9-2.8-2.4-2.8-4.7c0-2.2,0.8-3.8,2.5-4.8    s4.7-1.5,9-1.5s11.3,0.7,20.9,2L69,2.8z"/>
		<path class="st0" d="M89.3,31.7c0-7.4,1-12.7,3-15.8c2-3.1,5.6-4.7,10.8-4.7s8.8,1.6,10.8,4.7s3,8.4,3,15.8c0,7.4-0.9,12.8-2.8,16    c-1.9,3.3-5.6,4.9-11,4.9c-5.5,0-9.1-1.6-11-4.9C90.2,44.5,89.3,39.2,89.3,31.7 M75.8,31.9c0,10.6,2,18.6,6.1,24S93,64,103.1,64    c10,0,17.1-2.7,21.2-8.1c4.1-5.4,6.1-13.4,6.1-24c0-10.6-2.1-18.6-6.3-23.9s-11.2-8-21-8s-16.8,2.7-21,8S75.8,21.3,75.8,31.9"/>
	</g>
	<polygon class="st0" points="0,1.4 0,15.3 0,62.6 14.7,62.6 14.7,1.4  "/>
	<rect x="140.9" y="32" class="st1" width="30.8" height="30.8"/>
	<g>
		<path class="st1" d="M171.7,103.3v-3.9h-12.9v-8h10.5v-3.8h-10.5v-7.8h12.9v-3.9h-17.3v27.5L171.7,103.3L171.7,103.3z M133.7,79.6    h5.6c1.7,0,2.9,0.4,3.7,1.3c0.8,0.9,1.2,2.2,1.2,4.1c0,3.9-1.6,5.9-4.8,5.9h-5.6V79.6H133.7z M146.3,92.2c1.6-1.7,2.3-4.1,2.3-7.2    c0-6.2-3.1-9.2-9.3-9.2h-10.1v27.5h4.5v-8.5h5.6C142.5,94.7,144.8,93.9,146.3,92.2 M108.7,79.6h5.6c1.7,0,2.9,0.4,3.7,1.3    c0.8,0.9,1.2,2.2,1.2,4.1c0,3.9-1.6,5.9-4.8,5.9h-5.6V79.6H108.7z M121.3,92.2c1.6-1.7,2.3-4.1,2.3-7.2c0-6.2-3.1-9.2-9.3-9.2    h-10.1v27.5h4.5v-8.5h5.6C117.4,94.7,119.7,93.9,121.3,92.2 M81,75.8h-4.5v18.6c0,3.2,0.8,5.6,2.5,7.1s4.2,2.2,7.6,2.2    c3.4,0,5.9-0.7,7.6-2.2c1.7-1.5,2.5-3.8,2.5-7.1V75.8h-4.5v18.7c0,3.6-1.9,5.3-5.6,5.3c-3.7,0-5.6-1.8-5.6-5.3V75.8z M64.7,88.2    c-0.7,0.9-1.9,1.4-3.5,1.4h-6.1v-10h6c3.2,0,4.7,1.6,4.7,4.9C65.8,86.1,65.4,87.3,64.7,88.2 M61.5,93.5l4,9.8h4.9l-4.5-10.8    c3-1.4,4.5-4,4.5-7.9c0-5.8-3.1-8.7-9.3-8.7H50.6v27.5h4.5v-9.8L61.5,93.5L61.5,93.5z M39.3,92.8v6.7c-1,0.2-2.4,0.4-4.4,0.4    c-2.7,0-4.5-0.7-5.4-2.2s-1.3-4.2-1.3-8.1c0-3.9,0.5-6.6,1.4-8s2.7-2.2,5.3-2.2s5.5,0.2,8.7,0.6l0.2-3.5l-1.4-0.3    c-2.9-0.5-5.6-0.8-7.9-0.8c-4,0-6.8,1.1-8.4,3.4c-1.6,2.2-2.4,5.8-2.4,10.7s0.8,8.5,2.4,10.8c1.6,2.3,4.5,3.4,8.6,3.4    c1,0,2.6-0.1,4.8-0.3s3.7-0.4,4.4-0.6v-14h-7.8v3.9L39.3,92.8L39.3,92.8z"/>
	</g>
</g>
</svg>
